# AST/ASF file generated using VICON BodyLanguage
# -----------------------------------------------
:version 1.10
:name VICON
:units
  mass 1.0
  length 0.45
  angle deg
:documentation
   .ast/.asf automatically generated from VICON data using
   VICON BodyBuilder and BodyLanguage model FoxedUp or BRILLIANT.MOD
:root
   order TX TY TZ RX RY RZ
   axis XYZ
   position 0 0 0  
   orientation 0 0 0 
:bonedata
  begin
     id 1 
     name lhipjoint
     direction 0.570549 -0.739093 0.358072 
     length 2.41801 
     axis 0 0 0  XYZ
  end
  begin
     id 2 
     name lfemur
     direction 0.34202 -0.939693 0  
     length 7.44434  
     axis 0 0 20  XYZ
    dof rx ry rz
    limits (-160.0 20.0)
           (-70.0 70.0)
           (-60.0 70.0)
  end
  begin
     id 3 
     name ltibia
     direction 0.34202 -0.939693 0   
     length 7.60047   
     axis 0 0 20   XYZ
    dof rx
    limits (-10.0 170.0)
  end
  begin
     id 4 
     name lfoot
     direction 0.0909041 -0.249757 0.964032   
     length 2.03437   
     axis -90 7.62852e-016 20   XYZ
    dof rx rz
    limits (-45.0 90.0)
           (-70.0 20.0)
  end
  begin
     id 5 
     name ltoes
     direction 1.53547e-011 -4.2174e-011 1   
     length 1.02054   
     axis -90 7.62852e-016 20   XYZ
    dof rx
    limits (-90.0 20.0)
  end
  begin
     id 6 
     name rhipjoint
     direction -0.558096 -0.746754 0.361784   
     length 2.3932  
     axis 0 0 0  XYZ 
  end
  begin
     id 7 
     name rfemur
     direction -0.34202 -0.939693 0   
     length 7.3886   
     axis 0 0 -20   XYZ
    dof rx ry rz
    limits (-160.0 20.0)
           (-70.0 70.0)
           (-70.0 60.0)
  end
  begin
     id 8 
     name rtibia
     direction -0.34202 -0.939693 0   
     length 7.4839   
     axis 0 0 -20   XYZ
    dof rx
    limits (-10.0 170.0)
 end
 begin
     id 9 
     name rfoot
     direction -0.114619 -0.314914 0.942174   
     length 2.25127  
     axis -90 -7.62852e-016 -20   XYZ
    dof rx rz
    limits (-45.0 90.0)
           (-20.0 70.0)
  end
  begin
     id 10 
     name rtoes
     direction -1.53518e-011 -4.21881e-011 1   
     length 1.11821   
     axis -90 -7.62852e-016 -20   XYZ
    dof rx
    limits (-90.0 20.0)
  end
  begin
     id 11 
     name lowerback
     direction -0.00902269 0.996426 -0.0839821   
     length 2.25052   
     axis 0 0 0   XYZ
    dof rx ry rz
    limits (-20.0 45.0)
           (-30.0 30.0)
           (-30.0 30.0)
  end
  begin
     id 12 
     name upperback
     direction 0.0370973 0.999169 -0.0168941   
     length 2.24876   
     axis 0 0 0   XYZ
    dof rx ry rz
    limits (-20.0 45.0)
           (-30.0 30.0)
           (-30.0 30.0)
  end
  begin
     id 13 
     name thorax
     direction 0.0402726 0.998931 0.0227027   
     length 2.26408   
     axis 0 0 0   XYZ
    dof rx ry rz
    limits (-20.0 45.0)
           (-30.0 30.0)
           (-30.0 30.0)
  end
  begin
     id 14 
     name lowerneck
     direction -0.0733697 0.98508 0.155675   
     length 1.58204   
     axis 0 0 0   XYZ
    dof rx ry rz
    limits (-20.0 45.0)
           (-30.0 30.0)
           (-30.0 30.0)
  end
  begin
     id 15 
     name upperneck
     direction 0.0426554 0.993501 -0.105526   
     length 1.61222   
     axis 0 0 0   XYZ
    dof rx ry rz
    limits (-20.0 45.0)
           (-30.0 30.0)
           (-30.0 30.0)
  end
  begin
     id 16
     name head
     direction 0.020792 0.998384 -0.0528868  
     length 1.61527  
     axis 0 0 0   XYZ
    dof rx ry rz
    limits (-20.0 45.0)
           (-30.0 30.0)
           (-30.0 30.0)
  end
  begin
     id 17 
     name lclavicle
     direction 0.967109 0.155462 -0.201325  
     length 3.59357  
     axis 0 0 0   XYZ
    dof ry rz
    limits (-20.0 10.0)
           (0.0 20.0)
  end
  begin
     id 18 
     name lhumerus
     direction 1 -4.48968e-011 2.38195e-027   
     length 5.38154   
     axis 180 -30 -90   XYZ
    dof rx ry rz
    limits (-60.0 90.0)
           (-90.0 90.0)
           (-90.0 90.0)
  end
  begin
     id 19
     name lradius
     direction 1 -4.48961e-011 4.85371e-027   
     length 3.33312   
     axis 180 -30 -90   XYZ
    dof rx
    limits (-10.0 170.0)
  end
  begin
     id 20
     name lwrist
     direction 1 -4.48961e-011 4.76515e-027   
     length 1.66656   
     axis -3.27502e-015 90 90   XYZ
    dof ry
    limits (-180.0 0.0)
 end
  begin
     id 21 
     name lhand
     direction 1 -4.48951e-011 9.53074e-027   
     length 0.710789   
     axis -6.08098e-015 90 90   XYZ
    dof rx rz
    limits (-90.0 90.0)
           (-45.0 45.0)
  end
  begin
     id 22 
     name lfingers
     direction 1 -4.48953e-011 1.90613e-026   
     length 0.573057   
     axis -1.21619e-014 90 90   XYZ
    dof rx
    limits (0.0 90.0)
  end
  begin
     id 23
     name lthumb
     direction 0.707107 -6.34973e-011 0.707107   
     length 0.822798   
     axis -90 45 -9.86923e-015   XYZ
    dof rx rz
    limits (-45.0 45.0)
           (-45.0 45.0)
  end
  begin
     id 24 
     name rclavicle
     direction -0.9585 0.265289 -0.104398   
     length 3.42039  
     axis 0 0 0   XYZ 
    dof ry rz
    limits (-10.0 20.0)
           (-20.0 0.0)
  end
  begin
     id 25 
     name rhumerus
     direction -1 -4.48977e-011 2.21478e-027  
     length 5.16954   
     axis 180 30 90   XYZ
    dof rx ry rz
    limits (-90.0 60.0)
           (-90.0 90.0)
           (-90.0 90.0)
  end
  begin
     id 26 
     name rradius
     direction -1 -4.48967e-011 5.63677e-027   
     length 3.38287   
     axis 180 30 90   XYZ
    dof rx
    limits (-10.0 170.0)
  end
  begin
     id 27 
     name rwrist
     direction -1 -4.48967e-011 4.76501e-027   
     length 1.69144   
     axis -3.27502e-015 -90 -90   XYZ
    dof ry
    limits (-180.0 0.0)
  end
  begin
     id 28
     name rhand
     direction -1 -4.48902e-011 9.53292e-027   
     length 0.817967   
     axis -6.08098e-015 -90 -90   XYZ
    dof rx rz
    limits (-90.0 90.0)
           (-45.0 45.0)
  end
  begin
     id 29
     name rfingers
     direction -1 -4.49012e-011 1.90561e-026   
     length 0.659466   
     axis -1.21619e-014 -90 -90   XYZ
    dof rx
    limits (0.0 90.0)
  end
  begin
     id 30
     name rthumb
     direction -0.707107 -6.34944e-011 0.707107   
     length 0.946865   
     axis -90 -45 9.86923e-015   XYZ
    dof rx rz
    limits (-45.0 45.0)
           (-45.0 45.0)
  end
:hierarchy
  begin
    root lhipjoint rhipjoint lowerback
    lhipjoint lfemur
    lfemur ltibia
    ltibia lfoot
    lfoot ltoes
    rhipjoint rfemur
    rfemur rtibia
    rtibia rfoot
    rfoot rtoes
    lowerback upperback
    upperback thorax
    thorax lowerneck lclavicle rclavicle
    lowerneck upperneck
    upperneck head
    lclavicle lhumerus
    lhumerus lradius
    lradius lwrist
    lwrist lhand lthumb
    lhand lfingers
    rclavicle rhumerus
    rhumerus rradius
    rradius rwrist
    rwrist rhand rthumb
    rhand rfingers
  end

#!OML:ASF F:\twosubjects\two\wednesday\Session 1\Justin1.ASF
:FULLY-SPECIFIED
:DEGREES
109
root -4.07849 17.6361 9.8879 -167.905 -21.266 -185.297
lowerback 5.8906 -3.39893 -8.76895
upperback -2.75434 -5.24707 1.11346
thorax -5.3253 -2.26858 6.59802
lowerneck -12.1589 -7.14168 -13.96
upperneck 10.175 -7.90521 5.17834
head 5.831 -4.06166 3.14572
rclavicle 8.3912e-014 5.76476e-015
rhumerus 5.98364 -61.7695 -37.837
rradius 88.2782
rwrist -32.2701
rhand -40.0282 29.3397
rfingers 7.12502
rthumb -12.9949 -0.235569
lclavicle 8.3912e-014 5.76476e-015
lhumerus -28.4853 3.11798 76.2821
lradius 49.414
lwrist -5.11046
lhand -2.7492 34.4589
lfingers 7.12502
lthumb 22.9546 63.1123
rfemur -36.9385 -1.66333 17.1803
rtibia 17.3403
rfoot -8.46981 -8.96326
rtoes -1.73715
lfemur 2.26279 -4.04253 -27.1377
ltibia 13.3076
lfoot -10.4292 -24.3584
ltoes 23.9212
110
root -4.09727 17.624 9.73602 -167.762 -21.8208 -185.084
lowerback 5.69029 -3.43013 -8.49891
upperback -2.77111 -5.24 1.24207
thorax -5.23892 -2.27674 6.56658
lowerneck -12.3485 -7.33529 -14.1349
upperneck 10.3635 -8.11757 5.2141
head 5.95179 -4.17024 3.15309
rclavicle 4.01048e-014 2.8625e-014
rhumerus 10.7592 -61.7094 -40.5353
rradius 87.6844
rwrist -31.5071
rhand -39.4782 28.311
rfingers 7.12502
rthumb -12.4647 -1.2973
lclavicle 4.01048e-014 2.8625e-014
lhumerus -28.6929 3.18656 76.2713
lradius 49.4629
lwrist -5.18273
lhand -2.71361 34.3955
lfingers 7.12502
lthumb 22.9888 63.0446
rfemur -37.0259 -2.11683 17.7705
rtibia 17.2688
rfoot -9.11647 -9.79845
rtoes -3.01679
lfemur 2.72983 -4.03376 -26.6512
ltibia 12.9609
lfoot -9.92449 -24.6213
ltoes 26.3035
111
root -4.11568 17.6195 9.58361 -167.588 -22.3155 -185.399
lowerback 5.49292 -3.40657 -8.62098
upperback -2.53594 -5.19338 1.10052
thorax -4.88733 -2.27785 6.45258
lowerneck -13.0634 -7.6426 -14.2123
upperneck 10.7493 -8.44255 5.44513
head 6.23862 -4.30753 3.1777
rclavicle -7.72775e-015 1.39149e-015
rhumerus 15.2745 -61.7086 -42.9821
rradius 86.8562
rwrist -30.753
rhand -39.1297 27.3699
rfingers 7.12502
rthumb -12.1287 -2.25854
lclavicle -7.72775e-015 1.39149e-015
lhumerus -28.2694 3.15173 76.212
lradius 49.1218
lwrist -5.22791
lhand -3.05165 34.5314
lfingers 7.12502
lthumb 22.6644 63.2206
rfemur -36.9133 -2.74936 17.8836
rtibia 17.3787
rfoot -9.22535 -10.5321
rtoes -2.25552
lfemur 3.36567 -4.06343 -26.7165
ltibia 12.6747
lfoot -9.60035 -24.8125
ltoes 26.6313
112
root -4.13288 17.6206 9.4306 -167.403 -22.7592 -186.167
lowerback 5.59208 -3.33379 -9.02468
upperback -2.29363 -5.14761 0.712664
thorax -4.69866 -2.26734 6.26116
lowerneck -13.7143 -7.9291 -14.1906
upperneck 10.9906 -8.76935 5.71677
head 6.46783 -4.43379 3.20176
rclavicle 5.00689e-014 3.02153e-014
rhumerus 19.0498 -61.5279 -44.8782
rradius 85.8877
rwrist -30.0381
rhand -39.0885 26.6581
rfingers 7.12502
rthumb -12.089 -2.97264
lclavicle 5.00689e-014 3.02153e-014
lhumerus -27.676 3.12775 75.9876
lradius 48.561
lwrist -5.62074
lhand -2.81607 35.0776
lfingers 7.12502
lthumb 22.8905 63.7389
rfemur -36.5161 -3.04502 17.32
rtibia 17.5861
rfoot -8.98352 -11.4792
rtoes -1.06637
lfemur 4.12385 -4.1883 -27.255
ltibia 12.5195
lfoot -9.44425 -24.8512
ltoes 25.4573
113
root -4.15492 17.6178 9.27826 -167.313 -23.1954 -186.401
lowerback 5.6952 -3.30009 -8.83625
upperback -2.3304 -5.12036 0.427787
thorax -4.84191 -2.25757 5.86468
lowerneck -13.4214 -8.02159 -14.1967
upperneck 10.8663 -8.9751 6.03176
head 6.415 -4.51085 3.29052
rclavicle -3.23025e-014 -1.27222e-014
rhumerus 22.2801 -60.9208 -46.4399
rradius 84.8404
rwrist -29.2238
rhand -38.9122 26.136
rfingers 7.12502
rthumb -11.919 -3.50473
lclavicle -3.23025e-014 -1.27222e-014
lhumerus -27.7118 2.99535 75.6188
lradius 48.0647
lwrist -5.73451
lhand -2.70251 35.403
lfingers 7.12502
lthumb 22.9994 64.0508
rfemur -36.344 -3.63907 17.5034
rtibia 18.0221
rfoot -8.12491 -11.849
rtoes -0.00350657
lfemur 4.80496 -4.34964 -27.275
ltibia 12.2489
lfoot -8.91127 -24.7715
ltoes 24.2093
114
root -4.17837 17.6035 9.12282 -167.344 -23.5688 -186.129
lowerback 5.7376 -3.35845 -8.43533
upperback -2.5615 -5.17602 0.546027
thorax -5.1228 -2.27446 5.78495
lowerneck -12.7305 -7.99362 -14.6716
upperneck 10.7085 -8.99233 6.29712
head 6.28667 -4.5309 3.46952
rclavicle -4.92489e-014 2.98177e-015
rhumerus 25.8247 -59.567 -48.0077
rradius 83.6891
rwrist -28.6201
rhand -38.7833 25.8743
rfingers 7.12502
rthumb -11.7947 -3.77359
lclavicle -4.92489e-014 2.98177e-015
lhumerus -28.4327 3.37568 75.491
lradius 47.6488
lwrist -5.4016
lhand -3.4702 34.7172
lfingers 7.12502
lthumb 22.2626 63.4549
rfemur -36.4247 -4.27074 18.3106
rtibia 18.6511
rfoot -6.73591 -12.0696
rtoes 1.31743
lfemur 5.52237 -4.48305 -26.8205
ltibia 11.7326
lfoot -8.22953 -24.6242
ltoes 22.2029
115
root -4.2001 17.5895 8.96599 -167.367 -23.8329 -185.829
lowerback 5.91573 -3.40758 -7.8245
upperback -2.87496 -5.2279 0.536295
thorax -5.59893 -2.29052 5.46977
lowerneck -12.4786 -7.98446 -14.8422
upperneck 11.07 -9.00438 6.24723
head 6.36788 -4.56225 3.48255
rclavicle 9.44227e-015 -4.96962e-015
rhumerus 28.7167 -58.0392 -49.3002
rradius 82.6538
rwrist -28.3075
rhand -38.9101 25.4738
rfingers 7.12502
rthumb -11.917 -4.16704
lclavicle 9.44227e-015 -4.96962e-015
lhumerus -29.4495 3.75639 75.1044
lradius 47.536
lwrist -5.07911
lhand -3.91222 34.2732
lfingers 7.12502
lthumb 21.8383 63.0609
rfemur -36.4678 -4.5061 18.9581
rtibia 19.2533
rfoot -4.87706 -12.713
rtoes 3.00462
lfemur 6.22906 -4.72655 -26.3993
ltibia 11.1781
lfoot -7.74077 -24.3219
ltoes 20.1889
